<?xml version="1.0" standalone="no"?>
<!DOCTYPE svg PUBLIC "-//W3C//DTD SVG 20010904//EN"
 "http://www.w3.org/TR/2001/REC-SVG-20010904/DTD/svg10.dtd">
<svg version="1.0" xmlns="http://www.w3.org/2000/svg"
 width="684.000000pt" height="685.000000pt" viewBox="0 0 684.000000 685.000000"
 preserveAspectRatio="xMidYMid meet">

<g transform="translate(0.000000,685.000000) scale(0.100000,-0.100000)"
fill="#000000" stroke="none">
<path d="M205 6811 c-75 -36 -136 -98 -172 -176 l-28 -60 -3 -3100 c-2 -2152
1 -3121 8 -3169 19 -120 79 -204 192 -263 l53 -28 3165 0 3165 0 56 28 c67 32
142 109 172 175 l22 47 0 3160 0 3160 -33 67 c-36 73 -87 124 -161 160 l-46
23 -3165 3 -3165 2 -60 -29z m3346 -1153 c78 -35 124 -80 160 -154 27 -55 32
-76 32 -138 0 -126 -70 -239 -181 -292 -49 -23 -76 -28 -195 -35 -161 -9 -277
-28 -402 -64 -515 -150 -935 -555 -1104 -1066 -91 -276 -105 -595 -39 -884
179 -782 925 -1330 1722 -1266 412 34 773 204 1057 497 293 304 432 634 466
1109 8 101 15 140 32 173 33 65 87 118 149 149 76 37 201 40 275 6 67 -31 141
-110 166 -178 47 -125 16 -468 -70 -762 -241 -831 -946 -1460 -1809 -1613
-177 -32 -487 -39 -668 -16 -403 52 -796 213 -1114 458 -413 319 -708 773
-832 1279 -46 191 -60 317 -60 539 0 232 15 356 69 565 43 169 81 269 164 440
317 651 935 1118 1647 1246 255 45 446 48 535 7z m1454 -682 c80 -39 149 -110
188 -194 30 -62 32 -75 32 -172 0 -99 -2 -110 -33 -172 -41 -84 -128 -167
-209 -199 -47 -19 -77 -23 -158 -24 -94 0 -105 2 -167 33 -88 43 -152 106
-191 190 -30 63 -32 74 -32 177 0 100 3 115 28 166 32 67 94 139 143 170 80
49 123 59 234 56 93 -2 112 -6 165 -31z m-1965 -1612 c93 -45 153 -102 195
-188 85 -171 56 -356 -74 -487 -31 -30 -83 -69 -116 -85 -56 -27 -68 -29 -175
-29 -109 0 -119 2 -182 32 -88 41 -160 113 -201 200 -39 85 -49 207 -23 296
24 83 90 173 164 224 87 59 137 73 252 70 82 -2 104 -7 160 -33z"/>
</g>
</svg>
